<svg id="Layer_1" data-name="Layer 1" xmlns="http://www.w3.org/2000/svg" viewBox="0 0 705.35 204.84"><defs><style>.cls-1{fill:#f38230;}.cls-2{fill:#fff;}.cls-3{fill:#45ac4f;}.cls-4{fill:#a5cd9c;}.cls-5{fill:#786e64;}.cls-6{fill:#b0a8a1;}.cls-7{fill:#e9178b;}.cls-8{fill:#26428c;}.cls-9{fill:#f3822f;}.cls-10{fill:#fdc33b;}.cls-11{fill:#8f4930;}.cls-12{fill:#a44698;}.cls-13{fill:#1daeec;}.cls-14{fill:#cf252f;}.cls-15,.cls-44{font-size:22px;font-family:MyriadPro-Regular, Myriad Pro;}.cls-16{letter-spacing:-0.07em;}.cls-17{letter-spacing:-0.04em;}.cls-18{letter-spacing:-0.03em;}.cls-19{letter-spacing:-0.02em;}.cls-20{letter-spacing:0.02em;}.cls-21{letter-spacing:-0.03em;}.cls-22{letter-spacing:0em;}.cls-23{letter-spacing:-0.01em;}.cls-24{letter-spacing:-0.01em;}.cls-25{letter-spacing:0em;}.cls-26{letter-spacing:0.01em;}.cls-27{letter-spacing:-0.01em;}.cls-28{letter-spacing:-0.01em;}.cls-29{letter-spacing:0.01em;}.cls-30{letter-spacing:-0.08em;}.cls-31{letter-spacing:-0.02em;}.cls-32{letter-spacing:0em;}.cls-33{letter-spacing:-0.01em;}.cls-34{letter-spacing:0.01em;}.cls-35{letter-spacing:0em;}.cls-36{letter-spacing:0em;}.cls-37{letter-spacing:-0.04em;}.cls-38,.cls-44{letter-spacing:-0.05em;}.cls-39{letter-spacing:-0.01em;}.cls-40{letter-spacing:-0.04em;}.cls-41{letter-spacing:0em;}.cls-42{letter-spacing:0.02em;}.cls-43{letter-spacing:0em;}</style></defs><title>Artboard 15</title><rect class="cls-1" x="3" y="3" width="31.33" height="31.33"/><path class="cls-2" d="M21.22,12.72V29.46H15.81V12.72H9.48V8.38H27.56v4.34Z"/><path class="cls-2" d="M21.55,29.78H15.49V13.05H9.15v-5H27.88v5H21.55Zm-5.42-.64H20.9V12.4h6.33V8.7H9.8v3.7h6.33Z"/><rect class="cls-3" x="3" y="44.84" width="31.3" height="31.3"/><polygon class="cls-2" points="11.36 49.65 27.45 49.65 27.45 54.31 17.27 54.31 17.27 58.54 25.98 58.54 25.98 63.16 17.18 63.16 17.18 71.29 11.36 71.29 11.36 49.65"/><rect class="cls-4" x="3" y="86.65" width="31.33" height="31.33"/><path class="cls-2" d="M18.58,90.78c-6.15,0-11.13,5.26-11.13,11.73s5,11.74,11.13,11.74S29.7,109,29.7,102.51,24.72,90.78,18.58,90.78Zm0,18.16c-2.78,0-5-2.84-5-6.34s2.26-6.34,5-6.34,5,2.84,5,6.34S21.33,108.94,18.55,108.94Z"/><rect class="cls-5" x="3" y="128.48" width="31.33" height="31.33"/><polygon class="cls-2" points="8.15 133.42 14.33 133.42 18.66 148.73 22.74 133.42 28.91 133.42 21.95 154.94 15.24 154.94 8.15 133.42"/><rect class="cls-6" x="287.35" y="2.24" width="31.33" height="31.33"/><polygon class="cls-2" points="288.7 7.22 294.21 7.22 297.24 22.66 300.39 7.22 305.59 7.22 308.8 22.66 311.82 7.22 317.33 7.22 311.52 28.41 305.95 28.41 303.09 13.65 300.14 28.41 294.58 28.41 288.7 7.22"/><rect x="287.35" y="44.63" width="32.05" height="32.05"/><path class="cls-2" d="M304.19,50.25h-10V71.76h9.44s10,1.17,10.38-10C314.42,50,304.19,50.25,304.19,50.25Zm-.77,16.62-3.57.09V55.08h3.25s5.26-.14,5.27,5.84C308.37,67.18,303.42,66.87,303.42,66.87Z"/><rect class="cls-7" x="287.35" y="86.73" width="31.33" height="31.33"/><path class="cls-2" d="M305.69,91.6H294.84V113h5.59v-7c.17.07,1.09.14,5.19-.06,6-.29,7.13-4,7.13-7.05C312.75,92,305.69,91.6,305.69,91.6Zm-.8,9.87h-4.46V96h4.17a2.77,2.77,0,0,1,2.55,2.78A2.46,2.46,0,0,1,304.89,101.47Z"/><rect class="cls-8" x="288.99" y="128.79" width="31.33" height="31.33"/><path class="cls-2" d="M301,147.94c0,.27.07.55.13.82a2.72,2.72,0,0,0,2.06,2.21,6,6,0,0,0,3.91-.17,1.84,1.84,0,0,0,1.24-1.54,1.49,1.49,0,0,0-.41-1.24,4.17,4.17,0,0,0-1.91-1c-1.35-.39-2.72-.73-4.08-1.12a11.59,11.59,0,0,1-3.64-1.63,5.16,5.16,0,0,1-2.21-4.82,5.68,5.68,0,0,1,3.35-4.86,10.73,10.73,0,0,1,4.11-1.13,12.06,12.06,0,0,1,4.74.48,7.18,7.18,0,0,1,3.86,2.67,6.19,6.19,0,0,1,1.08,3.65h-5.55a5.09,5.09,0,0,0,0-.56,1.86,1.86,0,0,0-.92-1.37,4.55,4.55,0,0,0-4.24-.2,1.45,1.45,0,0,0-.81,1.58,1.27,1.27,0,0,0,.76,1,10.46,10.46,0,0,0,1.71.67c1.37.39,2.75.7,4.12,1.09a10.22,10.22,0,0,1,3.52,1.64,5.25,5.25,0,0,1,2.12,4.89,6.78,6.78,0,0,1-.76,2.82,6.53,6.53,0,0,1-3.64,3,13.65,13.65,0,0,1-4.91.77,12.43,12.43,0,0,1-4.52-.77,6.62,6.62,0,0,1-4.38-4.83,17.7,17.7,0,0,1-.24-1.78c0-.14,0-.23.18-.23h5.31Z"/><path class="cls-2" d="M539.46,2.23l-.3,0H508.43l-.3,0s0,0,0,0a1.34,1.34,0,0,1,.2,0h30.87A.86.86,0,0,1,539.46,2.23Z"/><rect class="cls-9" x="508.13" y="2.23" width="31.3" height="31.29"/><path class="cls-2" d="M525,17.11V9.17c0-.33,0-.33.33-.33h6.35a4.41,4.41,0,0,1,4.54,3.64,9.18,9.18,0,0,1,.1,2.91,5.89,5.89,0,0,1-.71,2.43,3.78,3.78,0,0,1-3,2c-1.2.12-2.41.08-3.61.11-.36,0-.36,0-.36.37V25c0,.36,0,.36-.34.36-1,0-2,0-3,0-.24,0-.3-.08-.3-.3Q525,21.08,525,17.11Zm3.62-2.69c0,.61,0,1.21,0,1.81,0,.21.08.27.27.26.78,0,1.56,0,2.34,0a1.43,1.43,0,0,0,1.42-1.1,4.25,4.25,0,0,0,.1-1.33A1.66,1.66,0,0,0,531,12.36h-2.09c-.2,0-.27.06-.27.26C528.63,13.22,528.62,13.82,528.62,14.42Z"/><path class="cls-2" d="M511.83,17.09V9.2c0-.36,0-.36.36-.36h6.45A4.38,4.38,0,0,1,523,12.25a9.42,9.42,0,0,1,.17,3,6.1,6.1,0,0,1-.73,2.53,3.75,3.75,0,0,1-3,2c-1.2.12-2.41.08-3.61.11-.37,0-.37,0-.37.37V25c0,.33,0,.33-.34.33-1,0-2,0-3,0-.24,0-.3-.07-.3-.3C511.84,22.41,511.83,19.75,511.83,17.09Zm3.62-2.67c0,.6,0,1.21,0,1.81,0,.2.06.27.26.26.78,0,1.56,0,2.34,0a1.44,1.44,0,0,0,1.43-1.1,5,5,0,0,0,.1-1.33,1.67,1.67,0,0,0-1.78-1.65h-2.08c-.2,0-.27.06-.27.26C515.46,13.21,515.45,13.82,515.45,14.42Z"/><rect class="cls-10" x="508.13" y="45.92" width="31.33" height="31.33"/><path class="cls-2" d="M517.06,53.28A9.68,9.68,0,0,1,524,50.75c3.73,0,6.45,1.13,8.18,3.39A7,7,0,0,1,533.66,58H529a5.59,5.59,0,0,0-1.15-2.23,4.83,4.83,0,0,0-3.7-1.33,4.69,4.69,0,0,0-4,1.88,8.62,8.62,0,0,0-1.44,5.33,7.62,7.62,0,0,0,1.52,5.17,4.94,4.94,0,0,0,3.87,1.72A4.56,4.56,0,0,0,527.8,67,6.14,6.14,0,0,0,529,64.66h4.65a9,9,0,0,1-3.07,5.45,9.45,9.45,0,0,1-6.34,2.1,9.91,9.91,0,0,1-7.51-2.84A10.78,10.78,0,0,1,514,61.56Q514,56.19,517.06,53.28Z"/><path class="cls-2" d="M524.2,72.55a10.31,10.31,0,0,1-7.75-2.94,11.19,11.19,0,0,1-2.83-8c0-3.67,1.08-6.53,3.22-8.53h0A10,10,0,0,1,524,50.41c3.82,0,6.66,1.18,8.44,3.52a7.35,7.35,0,0,1,1.6,4l0,.35-5.49.14,0-.37a4.44,4.44,0,0,0-1.12-1.88,4,4,0,0,0-3.23-1.08,3.88,3.88,0,0,0-3.48,1.61,7.54,7.54,0,0,0-1.41,4.87,6.62,6.62,0,0,0,1.51,4.7,4,4,0,0,0,3.33,1.52,3.89,3.89,0,0,0,3.3-1.17,5.12,5.12,0,0,0,1.06-2.1l.1-.67h5.41v.85a9.34,9.34,0,0,1-3.19,5.65A9.77,9.77,0,0,1,524.2,72.55ZM524,51.08a9.4,9.4,0,0,0-6.66,2.45h0c-2,1.86-3,4.56-3,8a10.52,10.52,0,0,0,2.64,7.58,9.69,9.69,0,0,0,7.27,2.73,9.19,9.19,0,0,0,6.13-2A8.71,8.71,0,0,0,533.21,65h-4a6.26,6.26,0,0,1-1.16,2.26,4.91,4.91,0,0,1-3.92,1.59A5.32,5.32,0,0,1,520,67a8,8,0,0,1-1.61-5.4,8.94,8.94,0,0,1,1.52-5.54,5,5,0,0,1,4.21-2,5.14,5.14,0,0,1,3.94,1.44,5.57,5.57,0,0,1,1.15,2.12h4.07a6.84,6.84,0,0,0-1.43-3.28C530.21,52.18,527.55,51.08,524,51.08Z"/><rect class="cls-11" x="508.13" y="85.18" width="32.31" height="32.31"/><polygon class="cls-2" points="515.05 90.68 520.64 90.68 520.64 98.39 527.81 98.39 527.81 90.68 533.44 90.68 533.44 111.89 527.89 111.89 527.89 103.25 520.72 103.25 520.72 111.89 515.05 111.89 515.05 90.68"/><rect class="cls-12" x="508.13" y="127.02" width="32.11" height="32.11"/><polygon class="cls-2" points="513.54 132.53 519.78 132.53 524.12 141.11 528.3 132.53 534.64 132.53 526.91 145.79 526.91 153.81 521.34 153.81 521.34 145.87 513.54 132.53"/><rect class="cls-13" x="4.44" y="170.29" width="31.37" height="31.37"/><path class="cls-2" d="M23,175.43h-5.7L9.35,196.58h5.72l1.4-3.77h7.31l1.36,3.77h5.75Zm-5.23,13.3,2.41-7.43,2.33,7.43Z"/><rect class="cls-14" x="288.99" y="169.35" width="31.33" height="31.33"/><polygon class="cls-2" points="300.24 195.77 304.65 188.75 308.57 195.77 315.36 195.77 307.8 184.53 314.78 174.36 308.37 174.36 304.65 180.96 300.97 174.36 294.45 174.36 301.35 184.51 293.8 195.77 300.24 195.77"/><text class="cls-15" transform="translate(49.24 27.78)"><tspan class="cls-16">T</tspan><tspan x="9.37" y="0">ours</tspan></text><text class="cls-15" transform="translate(334.51 156.57)">Skeins of<tspan class="cls-17" x="81.42" y="0"> </tspan><tspan class="cls-18" x="85.29" y="0">W</tspan><tspan x="103.18" y="0">ool</tspan></text><text class="cls-15" transform="translate(555.65 28.64)"><tspan class="cls-19">P</tspan><tspan x="11.37" y="0">ump</tspan><tspan class="cls-20" x="54.36" y="0">k</tspan><tspan x="65.05" y="0">in </tspan><tspan class="cls-21" x="87.08" y="0">P</tspan><tspan class="cls-22" x="98.21" y="0">a</tspan><tspan class="cls-23" x="108.72" y="0">t</tspan><tspan x="115.87" y="0">ch</tspan></text><text class="cls-15" transform="translate(555.65 71.87)"><tspan class="cls-24">C</tspan><tspan x="12.52" y="0">o</tspan><tspan class="cls-25" x="24.6" y="0">r</tspan><tspan x="31.88" y="0">n </tspan><tspan class="cls-26" x="48.75" y="0">M</tspan><tspan x="66.57" y="0">a</tspan><tspan class="cls-27" x="77.17" y="0">z</tspan><tspan x="86.44" y="0">e</tspan></text><text class="cls-15" transform="translate(557.09 114.13)">H<tspan class="cls-28" x="14.34" y="0">a</tspan><tspan x="24.77" y="0">y </tspan><tspan class="cls-29" x="39.8" y="0">R</tspan><tspan x="51.85" y="0">ides</tspan></text><text class="cls-15" transform="translate(557.09 153.81)"><tspan class="cls-30">Y</tspan><tspan x="10.23" y="0">ou-</tspan><tspan class="cls-31" x="41.18" y="0">P</tspan><tspan x="52.54" y="0">ick</tspan></text><text class="cls-15" transform="translate(50.39 196.58)"><tspan class="cls-32">A</tspan><tspan x="13.4" y="0">nimal </tspan><tspan class="cls-29" x="69.56" y="0">I</tspan><tspan class="cls-22" x="75.04" y="0">n</tspan><tspan class="cls-23" x="87.16" y="0">t</tspan><tspan x="94.31" y="0">e</tspan><tspan class="cls-33" x="105.33" y="0">r</tspan><tspan x="112.42" y="0">a</tspan><tspan class="cls-34" x="123.02" y="0">c</tspan><tspan x="133.16" y="0">tion</tspan></text><text class="cls-15" transform="translate(332.51 195.19)">Ch<tspan class="cls-35" x="24.97" y="0">r</tspan><tspan class="cls-36" x="32.25" y="0">istmas</tspan><tspan class="cls-37" x="91.06" y="0"> </tspan><tspan class="cls-38" x="94.82" y="0">T</tspan><tspan class="cls-39" x="104.76" y="0">r</tspan><tspan x="111.74" y="0">ees</tspan></text><text class="cls-15" transform="translate(49.24 71.2)"><tspan class="cls-38">F</tspan><tspan class="cls-36" x="9.72" y="0">a</tspan><tspan class="cls-35" x="20.33" y="0">r</tspan><tspan class="cls-36" x="27.61" y="0">m </tspan><tspan class="cls-32" x="50.62" y="0">S</tspan><tspan x="61.4" y="0">tand</tspan></text><text class="cls-15" transform="translate(49.24 116.44)">On-<tspan class="cls-40" x="34.12" y="0">F</tspan><tspan x="43.85" y="0">a</tspan><tspan class="cls-25" x="54.45" y="0">r</tspan><tspan x="61.73" y="0">m </tspan><tspan class="cls-41" x="84.74" y="0">S</tspan><tspan x="95.66" y="0">ales</tspan></text><text class="cls-15" transform="translate(49.24 156)"><tspan class="cls-18">V</tspan><tspan x="11.55" y="0">olu</tspan><tspan class="cls-22" x="40.94" y="0">n</tspan><tspan class="cls-23" x="53.06" y="0">t</tspan><tspan x="60.21" y="0">eer Oppo</tspan><tspan class="cls-42" x="146.39" y="0">r</tspan><tspan x="154.11" y="0">tunities</tspan></text><text class="cls-15" transform="translate(333.59 30.64)"><tspan class="cls-18">W</tspan><tspan x="17.89" y="0">o</tspan><tspan class="cls-25" x="29.96" y="0">r</tspan><tspan class="cls-43" x="37.25" y="0">kshops</tspan></text><text class="cls-44" transform="translate(333.59 74.8)">F<tspan class="cls-36" x="9.72" y="0">a</tspan><tspan class="cls-35" x="20.33" y="0">r</tspan><tspan class="cls-36" x="27.61" y="0">m Dinners</tspan></text><text class="cls-15" transform="translate(333.59 118.15)"><tspan class="cls-31">P</tspan><tspan x="11.35" y="0">icnic</tspan><tspan class="cls-20" x="53.57" y="0">k</tspan><tspan x="64.26" y="0">ing</tspan></text></svg>