<svg id="Layer_1" data-name="Layer 1" xmlns="http://www.w3.org/2000/svg" viewBox="0 0 168.04 268.18"><defs><style>.cls-1{fill:#f58220;}</style></defs><title>Artboard 1</title><path class="cls-1" d="M160.21,21.61c-40,5.33-78.63,13.31-117.72,21.7L60.08,150.66c21-4.21,41.8-9.1,62.19-13.94,3.63-.84,7.21-2,10.89-2.51,8.27-1.1,14.61,7.93,15.31,13.13.32,2.42-3.72,3.67-6,4-5.51.74-10.66.72-16.17,1.45-21.13,2.82-42.53,7.09-63.38,12a20.1,20.1,0,0,0,.23,5.26c1.85,13.86,5.08,27.54,8.26,40.87,3.41,15.06,6,30.94,11.2,45.42.88,3.05,3.08,5.58,4,8.64l-.78,1.16a8.06,8.06,0,0,1-2.67,1.06c-1.37.18-10.38-.73-12.26-.83-6.57-.18-16.68,1.16-17.55-5.42-4.07-30.5-10-60.75-15.84-90.65-5.32,2.12-11.76-4.08-12.22-7.54-.56-4.16,6.33-5.08,9.91-6.26-2-18.43-7.74-37.07-12-55.19C19.65,85.86,16.19,70.45,12.28,55.1A32.71,32.71,0,0,0,7.12,44.5c-1.79-2.93-5.56-3.14-6.07-7A5,5,0,0,1,2,33.9c.27-1.45,4-1.94,5.32-2.12C44,26.88,86.43,15.23,122.72,6.86c8.17-1.8,16.25-4.29,24.52-5.39,11.94-1.59,13.65.65,17,8.31.73,2,2.48,4.61,2.76,6.69C167.42,19.59,163.89,21.12,160.21,21.61Z"/><path class="cls-1" d="M82.55,268.18c-1.5,0-4.62-.25-8.43-.58-1.5-.13-2.76-.24-3.34-.27-1,0-2.14,0-3.31,0-6.38.05-14.32.12-15.18-6.28-4.06-30.44-9.91-60.46-15.61-89.51a9.17,9.17,0,0,1-6.53-1.34c-3-1.78-5.59-4.94-5.91-7.34-.57-4.28,4.64-5.69,8.44-6.72l1.38-.39c-1.51-13.21-5-26.67-8.3-39.71-1.22-4.77-2.48-9.71-3.62-14.53-3.4-15.15-6.92-30.8-10.83-46.15a32,32,0,0,0-5-10.27A8.29,8.29,0,0,0,3.7,42.65c-1.54-1.07-3.28-2.29-3.64-5a5.89,5.89,0,0,1,1-4.19c.53-1.72,3.25-2.32,6.12-2.7,27.48-3.67,57.76-11,87.05-18.14,9.86-2.4,19.17-4.66,28.28-6.76,2.72-.6,5.48-1.29,8.14-1.95A150.07,150.07,0,0,1,147.11.48c12.32-1.64,14.51.83,18,8.9a24.72,24.72,0,0,0,1.1,2.4A15.78,15.78,0,0,1,168,16.34c.43,3.22-2.43,5.57-7.65,6.26h0C120.19,28,80.69,36.14,43.63,44.09L60.9,149.47c20.19-4.07,40.45-8.81,61.14-13.72,1.21-.28,2.4-.6,3.6-.91a59.52,59.52,0,0,1,7.39-1.62c8.87-1.19,15.68,8.38,16.43,14,.14,1.06-.19,2.58-2.56,3.81a13.91,13.91,0,0,1-4.32,1.29c-2.78.38-5.51.56-8.15.74s-5.29.35-8,.71c-19,2.54-39.51,6.4-62.58,11.8a22.69,22.69,0,0,0,.29,4.32c1.89,14.16,5.27,28.3,8.24,40.78.88,3.86,1.71,7.83,2.52,11.68,2.36,11.26,4.8,22.91,8.65,33.63a20.59,20.59,0,0,0,1.91,4.17,21.69,21.69,0,0,1,2.07,4.53l.13.45-1.18,1.75-.22.12a8.73,8.73,0,0,1-3,1.17A6.21,6.21,0,0,1,82.55,268.18Zm-13.33-2.87c.57,0,1.12,0,1.65,0s1.89.14,3.42.27c2.93.26,7.84.68,8.68.57a6.78,6.78,0,0,0,2.11-.83l.37-.56a22,22,0,0,0-1.76-3.68,22.18,22.18,0,0,1-2.06-4.53c-3.88-10.78-6.34-22.5-8.71-33.83-.81-3.84-1.64-7.81-2.51-11.64-3-12.51-6.37-26.71-8.27-41a20.61,20.61,0,0,1-.23-5.52l.08-.69.68-.16c23.42-5.5,44.19-9.42,63.48-12,2.79-.37,5.51-.55,8.15-.73s5.3-.36,8-.72a12.09,12.09,0,0,0,3.66-1.09c.74-.38,1.6-1,1.49-1.76-.63-4.78-6.63-13.27-14.18-12.27a60.22,60.22,0,0,0-7.14,1.57c-1.22.32-2.43.64-3.65.93-21.06,5-41.66,9.81-62.22,13.94l-1,.2L41.35,42.53l.93-.2c37.37-8,77.24-16.3,117.8-21.71h0c1.49-.2,6.33-1.08,5.94-4a14.63,14.63,0,0,0-1.55-3.92,24.12,24.12,0,0,1-1.16-2.55c-3.21-7.32-4.53-9.19-15.94-7.67a151.93,151.93,0,0,0-16.26,3.42c-2.67.67-5.44,1.36-8.18,2-9.09,2.09-18.4,4.35-28.25,6.75C65.34,21.72,35,29.09,7.43,32.77,3.47,33.3,3,34,3,34.1l0,.2-.11.16a4,4,0,0,0-.76,3C2.28,39.22,3.41,40,4.84,41A10.24,10.24,0,0,1,8,44a33.68,33.68,0,0,1,5.26,10.87c3.93,15.38,7.44,31.05,10.85,46.2,1.13,4.79,2.39,9.72,3.61,14.49,3.43,13.37,7,27.19,8.44,40.81l.09.8-.77.25c-.66.22-1.44.43-2.26.66-4,1.08-7.29,2.18-7,4.52.21,1.56,2.16,4.26,4.94,5.89,1.49.87,3.73,1.73,5.92.86l1.12-.45.24,1.18c5.76,29.42,11.72,59.83,15.84,90.72.57,4.31,6.06,4.6,13.17,4.54Z"/></svg>