<svg id="Layer_1" data-name="Layer 1" xmlns="http://www.w3.org/2000/svg" viewBox="0 0 359 207"><defs><style>.cls-1{fill:#fff;}</style></defs><title>farm-trail-logo copy</title><path class="cls-1" d="M65.66,86.84A317.1,317.1,0,0,0,32.58,89l.9,39.87c5.9-.51,11.8-1.28,17.56-2a24.91,24.91,0,0,1,3.08-.38c2.31,0,3.72,3.59,3.72,5.51,0,.9-1.16,1.15-1.8,1.15-1.54,0-2.95-.25-4.48-.25a138.55,138.55,0,0,0-17.82,1.28,9.54,9.54,0,0,0-.13,1.92c0,5.13.38,10.26.77,15.26.38,5.64.51,11.53,1.41,17,.13,1.16.64,2.18.77,3.34l-.26.38a1.76,1.76,0,0,1-.77.26c-.38,0-2.82-.77-3.33-.9-1.79-.38-4.62-.38-4.62-2.82,0-11.28-.51-22.56-1-33.71-1.54.51-3.08-2-3.08-3.34,0-1.53,1.93-1.53,2.95-1.79.13-6.79-.77-13.85-1.28-20.64-.38-5.77-.77-11.54-1.28-17.31a15,15,0,0,0-1-4.1c-.38-1.15-1.41-1.41-1.41-2.82a2.16,2.16,0,0,1,.39-1.28c.12-.51,1.15-.51,1.53-.51,10.26,0,22.31-2.18,32.57-3.46a62.32,62.32,0,0,1,6.92-.77c3.33,0,3.71.9,4.36,3.84a19.46,19.46,0,0,1,.51,2.57C67.71,86.45,66.68,86.84,65.66,86.84Z"/><path class="cls-1" d="M93,168.18c-7.68,0-11.14-15.26-11.9-21.21-.32,3.68-2,20.23-7.24,20.23a8.47,8.47,0,0,1-5.74-2.7c-6.6-6.28-7.46-16.55-7.46-25.1a36.61,36.61,0,0,1,.65-6.06A46.57,46.57,0,0,1,66,119.17c1.51-2.81,5.19-9,8.76-9,2.7,0,11,6,11,8.11a.79.79,0,0,1-.86.86c-.76,0-3-3.67-5.74-3.67a4.05,4.05,0,0,0-2.16.75c-8,5-10.6,20.12-10.6,28.78,0,5,.87,11.79,3.25,16.22.32.65,1.94,3.25,2.7,3.25s1.51-1.19,1.84-1.62c4.32-6.39,5.3-24.23,5.84-32.46,0-.54-.22-5.3,1.19-5.3,2,0,6.6.65,6.6,3.25,0,3.89-.54,7.9-.54,11.9,0,5.51.86,20.87,5.51,24.12,2.49-3.57,3.68-9.19,4.55-13.41.1-.76.32-3.46,1.4-3.46a1.2,1.2,0,0,1,1.08,1.29C99.88,152.27,97.61,168.18,93,168.18Z"/><path class="cls-1" d="M120.76,169.58c-10.06,0-12.65-19.9-12.65-27.58a159.42,159.42,0,0,1,1-16.12c-1.19,1.73-4.87,6.28-7,6.28a1.22,1.22,0,0,1-.87-.33c.44,9.41-.86,23.69-4.76,32.13-.43.86-.43,1.62-1.51,1.62-.76,0-1-.65-1-1.3a6.16,6.16,0,0,1,.21-1.4c3.46-9.09,4.11-21.31,4.11-25.53,0-2.6-.11-5.3-.32-7.9-4.11-1-5.63-12.87-5.63-16.44,0-2.27.11-7.25,3.25-7.25,5.52,0,5.19,12.44,5.19,16.23,0,1.62-.11,3.24-.22,4.86,2.82-.32,6-10.7,9.52-10.7a3,3,0,0,1,1.41.43c2.27.76,5,1,4.87,4l-.11.43c-.11,1.84-.54,3.79-.76,5.63a139.46,139.46,0,0,0-1.4,17.74c0,5.3,1.51,18.06,5.62,21.52,3.25-2.81,5.41-13.41,6.17-17.3.1-.76.32-1.19,1.19-1.19.54,0,1,.75,1,1.3C128,152.27,125.74,169.58,120.76,169.58Z"/><path class="cls-1" d="M168,167.2a4.69,4.69,0,0,1-1.73.22c-10.17,0-11.14-17.42-11.14-24.56,0-2.92.11-5.94.32-8.87-1.94,7.47-5.62,22.5-5.62,30.08a12,12,0,0,0,.65,2.92.85.85,0,0,1-.87.86c-1.94,0-4.76-1.62-5.41-3.46-.75-2.27-1.73-28.23-1.83-31.69l-4.12,18.49c-.75,3.36-2.27,8-2.27,11.69,0,1.62.54,3.57.54,5,0,.54-.32.87-1,.87a4.46,4.46,0,0,1-1.73-.44c-2.27-.86-4.43-1.94-4.54-4.65l-.22-6.81-.54-16.88c-.11,2.17-.76,15.26-2,16.34a.68.68,0,0,1-.43.1c-1.08,0-1.84-.75-1.62-1.73.32-1.29.65-2.92.86-4.21.33-1.95.54-4,.76-6.06a210.92,210.92,0,0,0,1.08-22c0-2.27,0-4.33-.11-6.6a14,14,0,0,0-.54-2.27l.33-.22c.54,0,2.59.65,3.24.76,3.46.87,3.68,2.06,3.79,5.41l.21,8.11L134.5,153l5.19-22.93,1.62-7.68c.22-1.08.54-2.92,2.06-2.92a5.26,5.26,0,0,1,1.19.32c1.95.54,4.87.87,4.87,3.57,0,1.41-.22,2.82-.33,4.22q-.32,6.17-.32,12.33V146c0,2.16,0,4.11.11,6.27l6.27-27.8c.11-.64.43-1.51,1.3-1.51a12.4,12.4,0,0,1,2.16.54c2.49.54,3.89.33,3.89,3.14,0,2.16-.43,4.22-.64,6.38a91.24,91.24,0,0,0-.76,10.93c0,4.32.54,18.71,5.19,20.44,2.38-1.08,4.65-11.79,5.19-14.5.11-.54.44-1.29,1.08-1.29.44,0,1.09.21,1.09.75C173.66,152.82,171.38,165.69,168,167.2Z"/><path class="cls-1" d="M243.53,88c-3.33,1.54-26.15,3.72-29.1,4.1.13,22.18,0,44.61.65,66.79a73.79,73.79,0,0,0,1,11.92c.26,1.15,1.67,4.49,1.67,5,0,.9-.9,1.15-1.67,1.15a13.89,13.89,0,0,1-4-.89c-3.21-1.16-4.11-3.21-4.11-6.54,0-17.56-.51-35-1.28-52.56-.38-7.95-.38-15.77-1.28-23.71l-12.31,1.66a46.76,46.76,0,0,1-6.15.77c-2.82,0-7.05-2.82-7.05-5.9,0-.89,6.28-1,7.05-1.15,5.77-.64,11.79-1.28,17.56-1.79a20.1,20.1,0,0,1-.64-2.57c.13-.89.9-.89,1.67-.89,1.79,0,6.92,1.28,8.08,2.56L235.46,84c3.07-.26,6.41-.64,9.48-.64.77,0,.9,0,1.16.64A4.53,4.53,0,0,1,243.53,88Z"/><path class="cls-1" d="M256.57,169.58c-10.06,0-12.65-19.9-12.65-27.58a159.42,159.42,0,0,1,1-16.12c-1.19,1.73-4.87,6.28-7,6.28a1.24,1.24,0,0,1-.87-.33c.44,9.41-.86,23.69-4.75,32.13-.44.86-.44,1.62-1.52,1.62-.76,0-1-.65-1-1.3a6.77,6.77,0,0,1,.21-1.4c3.46-9.09,4.11-21.31,4.11-25.53,0-2.6-.1-5.3-.32-7.9-4.11-1-5.63-12.87-5.63-16.44,0-2.27.11-7.25,3.25-7.25,5.52,0,5.19,12.44,5.19,16.23,0,1.62-.11,3.24-.21,4.86,2.81-.32,5.94-10.7,9.51-10.7a3,3,0,0,1,1.41.43c2.27.76,5,1,4.87,4L252,121c-.11,1.84-.54,3.79-.76,5.63a141.32,141.32,0,0,0-1.4,17.74c0,5.3,1.51,18.06,5.62,21.52,3.25-2.81,5.41-13.41,6.17-17.3.11-.76.32-1.19,1.19-1.19.54,0,1,.75,1,1.3C263.82,152.27,261.55,169.58,256.57,169.58Z"/><path class="cls-1" d="M292.05,168.18c-7.68,0-11.14-15.26-11.9-21.21-.32,3.68-2,20.23-7.24,20.23a8.47,8.47,0,0,1-5.74-2.7c-6.59-6.28-7.46-16.55-7.46-25.1a36.61,36.61,0,0,1,.65-6.06,46.57,46.57,0,0,1,4.76-14.17c1.51-2.81,5.19-9,8.76-9,2.7,0,11,6,11,8.11a.79.79,0,0,1-.86.86c-.76,0-3-3.67-5.74-3.67a4.05,4.05,0,0,0-2.16.75c-8,5-10.6,20.12-10.6,28.78,0,5,.87,11.79,3.25,16.22.32.65,1.94,3.25,2.7,3.25s1.51-1.19,1.84-1.62c4.33-6.39,5.3-24.23,5.84-32.46,0-.54-.22-5.3,1.19-5.3,1.95,0,6.6.65,6.6,3.25,0,3.89-.54,7.9-.54,11.9,0,5.51.86,20.87,5.51,24.12,2.49-3.57,3.68-9.19,4.55-13.41.11-.76.32-3.46,1.4-3.46a1.21,1.21,0,0,1,1.09,1.29C299,152.27,296.7,168.18,292.05,168.18Z"/><path class="cls-1" d="M311.42,171.53a4.75,4.75,0,0,1-2.92,1,9,9,0,0,1-4.33-1.51c-7.57-5-8.33-18.28-8.33-26.5,0-5.3.33-10.5.76-15.8.11-.65.11-4.11.86-4.11a15.28,15.28,0,0,1,3,.76c1.52.43,2.92.76,2.92,2.7a7.35,7.35,0,0,1-.32,1.52c-1.19,7.14-1.08,14.93-1.08,22.17,0,3.9.75,18.18,6.49,18.18.21,0,.86-.65,1-.76,3.57-4,5.84-16,6.82-21.09.1-.44.43-1.73,1-1.73,1.08,0,1.3,1.08,1.3,1.94C318.56,153.25,315.42,168.82,311.42,171.53ZM300.28,120.8c-2.6,0-3.14-6.06-3.14-7.9,0-2.27.76-9.73,3.89-9.73,2.6,0,3.25,5.84,3.25,7.68C304.28,113.12,303.41,120.8,300.28,120.8Z"/><path class="cls-1" d="M325.81,170.45c-13.53,0-13.2-23.91-13.2-32.89,0-6.27.32-12.33.32-18.6,0-4.65,0-9.41-.11-14.06a11.68,11.68,0,0,0-.64-4.33s-.55-.54.21-1.08c1.95,0,6.38,1.94,7.14,3.89a6.72,6.72,0,0,1,.33,2.06c0,13.09-1.3,26.28-1.3,39.37,0,5.84.54,18.5,5.3,22.39a2.79,2.79,0,0,0,1.62.76c3.46-1.62,6.27-17.74,6.92-21.63.11-.76.22-2.06,1.3-2.06.76,0,1.08.76,1.08,1.41C334.78,150.65,332.51,170.45,325.81,170.45Z"/><path class="cls-1" d="M70.51,39.24a4.83,4.83,0,0,1,.81,2.84,4.53,4.53,0,0,1-1.56,3.65A6.44,6.44,0,0,1,65.46,47H57.72V28.82h7.5a6.29,6.29,0,0,1,4.17,1.25,4.3,4.3,0,0,1,1.52,3.5,4.36,4.36,0,0,1-.72,2.51,4,4,0,0,1-2,1.55A4.16,4.16,0,0,1,70.51,39.24ZM60.77,36.5h3.94c2.15,0,3.22-.86,3.22-2.57a2.28,2.28,0,0,0-.8-1.91,3.94,3.94,0,0,0-2.42-.62H60.77Zm6.82,7.31a2.46,2.46,0,0,0,.78-2,2.57,2.57,0,0,0-.79-2,3.71,3.71,0,0,0-2.46-.67H60.77v5.38h4.35A3.82,3.82,0,0,0,67.59,43.81Z"/><path class="cls-1" d="M65.46,47.44H57.33v-19h7.89a6.74,6.74,0,0,1,4.42,1.35,4.69,4.69,0,0,1,1.66,3.8,4.86,4.86,0,0,1-.78,2.73,4.57,4.57,0,0,1-1.34,1.29A4.44,4.44,0,0,1,70.83,39h0a5.29,5.29,0,0,1,.88,3.07A4.9,4.9,0,0,1,70,46,6.85,6.85,0,0,1,65.46,47.44Zm-7.35-.79h7.35a6.16,6.16,0,0,0,4.05-1.22,4.14,4.14,0,0,0,1.42-3.35,4.52,4.52,0,0,0-.74-2.62A3.74,3.74,0,0,0,68.11,38L67,37.68l1.06-.41a3.76,3.76,0,0,0,1.79-1.41,4,4,0,0,0,.65-2.29,3.89,3.89,0,0,0-1.37-3.2,6.06,6.06,0,0,0-3.93-1.16H58.11Zm7-1.8H60.38V38.69h4.74a4.08,4.08,0,0,1,2.71.77,2.89,2.89,0,0,1,.93,2.34,2.83,2.83,0,0,1-.92,2.31h0A4.11,4.11,0,0,1,65.12,44.85Zm-4-.78h4a3.49,3.49,0,0,0,2.22-.56h0A2.08,2.08,0,0,0,68,41.8a2.19,2.19,0,0,0-.65-1.75,3.42,3.42,0,0,0-2.21-.58h-4Zm3.55-7.18H60.38V31h4.33a4.33,4.33,0,0,1,2.66.7,2.65,2.65,0,0,1,.95,2.22C68.32,35.28,67.69,36.89,64.71,36.89Zm-3.55-.79h3.55c2.54,0,2.83-1.23,2.83-2.17a1.87,1.87,0,0,0-.65-1.6,3.55,3.55,0,0,0-2.18-.54H61.16Z"/><path class="cls-1" d="M78.73,46.14a7.52,7.52,0,0,1-2.82-3.26,11.62,11.62,0,0,1-1-5,11.74,11.74,0,0,1,1-5,7.45,7.45,0,0,1,2.82-3.24,8.77,8.77,0,0,1,8.65,0A7.43,7.43,0,0,1,90.18,33a11.74,11.74,0,0,1,1,5,11.62,11.62,0,0,1-1,5,7.52,7.52,0,0,1-2.82,3.26,8.72,8.72,0,0,1-8.62,0Zm8-3.26a8,8,0,0,0,1.32-5,8,8,0,0,0-1.32-5,4.81,4.81,0,0,0-7.36,0,8,8,0,0,0-1.32,5,8,8,0,0,0,1.32,5,4.78,4.78,0,0,0,7.36,0Z"/><path class="cls-1" d="M83.05,47.67a8.42,8.42,0,0,1-4.52-1.2h0a7.84,7.84,0,0,1-3-3.42,12.1,12.1,0,0,1-1-5.13,12,12,0,0,1,1-5.12,7.69,7.69,0,0,1,3-3.41,9.15,9.15,0,0,1,9.06,0,7.77,7.77,0,0,1,3,3.41,12,12,0,0,1,1,5.12,12.1,12.1,0,0,1-1,5.13,7.84,7.84,0,0,1-3,3.42A8.4,8.4,0,0,1,83.05,47.67Zm0-18.7a7.65,7.65,0,0,0-4.12,1.08,6.94,6.94,0,0,0-2.67,3.08,11.28,11.28,0,0,0-1,4.79,11.2,11.2,0,0,0,1,4.8,7.1,7.1,0,0,0,2.67,3.09h0a8.32,8.32,0,0,0,8.2,0,7.1,7.1,0,0,0,2.67-3.09,11.2,11.2,0,0,0,1-4.8,11.28,11.28,0,0,0-1-4.79,7,7,0,0,0-2.66-3.08A7.61,7.61,0,0,0,83.05,29Zm0,16a4.76,4.76,0,0,1-4-1.88,8.46,8.46,0,0,1-1.4-5.2,8.39,8.39,0,0,1,1.4-5.19,5.19,5.19,0,0,1,8,0,8.41,8.41,0,0,1,1.4,5.19,8.46,8.46,0,0,1-1.4,5.2h0A4.73,4.73,0,0,1,83.05,45Zm0-13.36a4,4,0,0,0-3.38,1.56,7.7,7.7,0,0,0-1.24,4.72,7.75,7.75,0,0,0,1.24,4.73,4.4,4.4,0,0,0,6.74,0h0a7.77,7.77,0,0,0,1.24-4.73,7.72,7.72,0,0,0-1.24-4.72A4,4,0,0,0,83.05,31.64Z"/><path class="cls-1" d="M97.23,45.34a8,8,0,0,1-1.81-5.66V28.82h3v11a5.31,5.31,0,0,0,1,3.55,3.83,3.83,0,0,0,3,1.2,3.77,3.77,0,0,0,3-1.21,5.32,5.32,0,0,0,1-3.54v-11h3V39.68a8,8,0,0,1-1.82,5.65,8.22,8.22,0,0,1-10.62,0Z"/><path class="cls-1" d="M102.55,47.67a7.36,7.36,0,0,1-5.61-2.07A8.39,8.39,0,0,1,95,39.68V28.42h3.82V39.86a5,5,0,0,0,1,3.3,4.06,4.06,0,0,0,5.48,0,5,5,0,0,0,1-3.29V28.42h3.83V39.68a8.42,8.42,0,0,1-1.92,5.91A7.28,7.28,0,0,1,102.55,47.67ZM95.81,29.21V39.68a7.63,7.63,0,0,0,1.71,5.39h0a7.83,7.83,0,0,0,10,0,7.68,7.68,0,0,0,1.71-5.38V29.21H107V39.86a5.64,5.64,0,0,1-1.14,3.79A4.13,4.13,0,0,1,102.55,45a4.22,4.22,0,0,1-3.34-1.33,5.72,5.72,0,0,1-1.14-3.81V29.21Z"/><path class="cls-1" d="M114.46,47V28.82h3.12V44.3h8V47Z"/><path class="cls-1" d="M125.93,47.44H114.07v-19H118V43.91h8Zm-11.08-.79h10.3v-2h-8V29.21h-2.34Z"/><path class="cls-1" d="M129.09,28.82h6.29a8.6,8.6,0,0,1,6.5,2.39,9.25,9.25,0,0,1,2.31,6.71,9.29,9.29,0,0,1-2.31,6.72,8.6,8.6,0,0,1-6.5,2.4h-6.29Zm6.1,15.51q5.88,0,5.88-6.41t-5.88-6.39h-3v12.8Z"/><path class="cls-1" d="M135.38,47.44H128.7v-19h6.68a9,9,0,0,1,6.78,2.52,9.65,9.65,0,0,1,2.42,7,9.69,9.69,0,0,1-2.42,7A9,9,0,0,1,135.38,47.44Zm-5.9-.79h5.9a8.25,8.25,0,0,0,6.22-2.28,9,9,0,0,0,2.2-6.45,8.93,8.93,0,0,0-2.2-6.44,8.28,8.28,0,0,0-6.22-2.27h-5.9Zm5.71-1.93h-3.37V31.14h3.37c4.16,0,6.27,2.28,6.27,6.78S139.35,44.72,135.19,44.72Zm-2.59-.78h2.59c3.69,0,5.49-2,5.49-6s-1.8-6-5.49-6H132.6Z"/><path class="cls-1" d="M148.55,47V28.82H160v2.63h-8.38v5h7.89v2.61h-7.89v5.33H160V47Z"/><path class="cls-1" d="M160.36,47.44h-12.2v-19h12.2v3.42H152v4.24h7.89v3.39H152V44h8.38Zm-11.42-.79h10.64V44.8H151.2V38.69h7.89V36.86H151.2v-5.8h8.38V29.21H148.94Z"/><path class="cls-1" d="M178.3,47h-3.38L172,41.23a2.59,2.59,0,0,0-1-1.17,3.14,3.14,0,0,0-1.52-.33h-2.37V47H164V28.82h7.54A6.35,6.35,0,0,1,176,30.2a5.12,5.12,0,0,1,1.51,4,5.35,5.35,0,0,1-1.1,3.46,5.23,5.23,0,0,1-3.11,1.77,3.6,3.6,0,0,1,2.18,2Zm-4.59-10.58a2.75,2.75,0,0,0,.82-2.19,2.66,2.66,0,0,0-.82-2.18,4,4,0,0,0-2.59-.69h-4.07v5.77h4.07A3.93,3.93,0,0,0,173.71,36.46Z"/><path class="cls-1" d="M178.94,47.44h-4.26l-3-6a2.28,2.28,0,0,0-.86-1,2.73,2.73,0,0,0-1.33-.28h-2v7.32h-3.85v-19h7.93a6.69,6.69,0,0,1,4.68,1.49,5.54,5.54,0,0,1,1.64,4.28,5.7,5.7,0,0,1-1.19,3.7,5.25,5.25,0,0,1-2.32,1.62,4.59,4.59,0,0,1,1.44,1.78Zm-3.78-.79h2.51l-2.57-5a3.18,3.18,0,0,0-1.93-1.85l-1.53-.44,1.55-.31a4.87,4.87,0,0,0,2.89-1.64,5,5,0,0,0,1-3.21,4.78,4.78,0,0,0-1.38-3.7,6,6,0,0,0-4.16-1.28H164.4V46.65h2.29V39.34h2.76a3.54,3.54,0,0,1,1.71.38,3,3,0,0,1,1.18,1.33Zm-4-9.09h-4.46V31h4.46a4.37,4.37,0,0,1,2.84.78,3.05,3.05,0,0,1,1,2.48,3.1,3.1,0,0,1-1,2.48A4.24,4.24,0,0,1,171.12,37.56Zm-3.68-.78h3.68a3.53,3.53,0,0,0,2.33-.62h0a2.33,2.33,0,0,0,.69-1.89,2.33,2.33,0,0,0-.68-1.88,3.65,3.65,0,0,0-2.34-.6h-3.68Z"/><path class="cls-1" d="M193.15,46.13a7.53,7.53,0,0,1-2.88-3.27,11.44,11.44,0,0,1-1-4.94,11.36,11.36,0,0,1,1-4.93,7.56,7.56,0,0,1,2.88-3.26,8.28,8.28,0,0,1,4.39-1.15,9.2,9.2,0,0,1,3.24.57,7.28,7.28,0,0,1,2.57,1.6l-1,2.43A8.51,8.51,0,0,0,200,31.75a6.54,6.54,0,0,0-2.42-.45,4.57,4.57,0,0,0-3.81,1.7,7.79,7.79,0,0,0-1.35,4.92,7.83,7.83,0,0,0,1.35,4.94,4.57,4.57,0,0,0,3.81,1.7,6.54,6.54,0,0,0,2.42-.45,8.32,8.32,0,0,0,2.29-1.44l1,2.44a7.28,7.28,0,0,1-2.57,1.6,9.2,9.2,0,0,1-3.24.57A8.28,8.28,0,0,1,193.15,46.13Z"/><path class="cls-1" d="M197.54,47.67a8.67,8.67,0,0,1-4.6-1.21,7.81,7.81,0,0,1-3-3.44,11.7,11.7,0,0,1-1-5.1,11.67,11.67,0,0,1,1-5.1,7.86,7.86,0,0,1,3-3.42,8.7,8.7,0,0,1,4.6-1.21,9.55,9.55,0,0,1,3.38.6,7.38,7.38,0,0,1,2.7,1.69l.19.18-1.35,3.16-.41-.34a8.29,8.29,0,0,0-2.19-1.37,6.14,6.14,0,0,0-2.27-.42,4.17,4.17,0,0,0-3.51,1.56,7.49,7.49,0,0,0-1.26,4.67,7.53,7.53,0,0,0,1.26,4.69,4.17,4.17,0,0,0,3.51,1.56,6.14,6.14,0,0,0,2.27-.42,8.29,8.29,0,0,0,2.19-1.37l.41-.34,1.35,3.16-.19.18a7.38,7.38,0,0,1-2.7,1.69A9.55,9.55,0,0,1,197.54,47.67Zm0-18.7a7.84,7.84,0,0,0-4.19,1.1,7.1,7.1,0,0,0-2.73,3.09,11,11,0,0,0-1,4.76,11.13,11.13,0,0,0,1,4.77,7.07,7.07,0,0,0,2.73,3.1h0a7.84,7.84,0,0,0,4.19,1.1,8.83,8.83,0,0,0,3.1-.55A6.83,6.83,0,0,0,202.88,45l-.73-1.71a8.18,8.18,0,0,1-2,1.17,6.85,6.85,0,0,1-2.56.48,5,5,0,0,1-4.12-1.85A8.25,8.25,0,0,1,192,37.92a8.19,8.19,0,0,1,1.43-5.16,5,5,0,0,1,4.12-1.85,6.85,6.85,0,0,1,2.56.48,8.18,8.18,0,0,1,2,1.17l.73-1.71a6.83,6.83,0,0,0-2.24-1.33A8.87,8.87,0,0,0,197.54,29Z"/><path class="cls-1" d="M210.37,46.14a7.44,7.44,0,0,1-2.81-3.26,11.47,11.47,0,0,1-1-5,11.74,11.74,0,0,1,1-5,7.45,7.45,0,0,1,2.82-3.24,8.77,8.77,0,0,1,8.65,0A7.43,7.43,0,0,1,221.82,33a11.74,11.74,0,0,1,1,5,11.62,11.62,0,0,1-1,5A7.52,7.52,0,0,1,219,46.14a8.72,8.72,0,0,1-8.62,0Zm8-3.26a8,8,0,0,0,1.32-5,8,8,0,0,0-1.32-5A4.81,4.81,0,0,0,211,33a8,8,0,0,0-1.32,5,8,8,0,0,0,1.32,5,4.78,4.78,0,0,0,7.36,0Z"/><path class="cls-1" d="M214.69,47.67a8.42,8.42,0,0,1-4.52-1.2h0a7.84,7.84,0,0,1-3-3.42,12.1,12.1,0,0,1-1-5.13,12.15,12.15,0,0,1,1-5.12,7.69,7.69,0,0,1,3-3.41,9.15,9.15,0,0,1,9.06,0,7.77,7.77,0,0,1,2.95,3.41,12,12,0,0,1,1,5.12,12.1,12.1,0,0,1-1,5.13,7.84,7.84,0,0,1-3,3.42A8.4,8.4,0,0,1,214.69,47.67Zm0-18.7a7.67,7.67,0,0,0-4.12,1.08,6.94,6.94,0,0,0-2.67,3.08,11.28,11.28,0,0,0-1,4.79,11.2,11.2,0,0,0,1,4.8,7.1,7.1,0,0,0,2.67,3.09h0a8.32,8.32,0,0,0,8.2,0,7.1,7.1,0,0,0,2.67-3.09,11.2,11.2,0,0,0,1-4.8,11.28,11.28,0,0,0-.95-4.79,7,7,0,0,0-2.66-3.08A7.61,7.61,0,0,0,214.69,29Zm0,16a4.76,4.76,0,0,1-4-1.88,8.46,8.46,0,0,1-1.4-5.2,8.46,8.46,0,0,1,1.4-5.19,5.19,5.19,0,0,1,8,0,8.41,8.41,0,0,1,1.4,5.19,8.46,8.46,0,0,1-1.4,5.2h0A4.73,4.73,0,0,1,214.69,45Zm0-13.36a4,4,0,0,0-3.38,1.56,7.7,7.7,0,0,0-1.24,4.72,7.75,7.75,0,0,0,1.24,4.73,4.4,4.4,0,0,0,6.74,0h0a7.77,7.77,0,0,0,1.24-4.73,7.72,7.72,0,0,0-1.24-4.72A4,4,0,0,0,214.69,31.64Z"/><path class="cls-1" d="M228.87,45.34a8,8,0,0,1-1.81-5.66V28.82h3v11a5.26,5.26,0,0,0,1.05,3.55,4.42,4.42,0,0,0,6.07,0,5.32,5.32,0,0,0,1-3.54v-11h3.05V39.68a8,8,0,0,1-1.82,5.65,8.22,8.22,0,0,1-10.62,0Z"/><path class="cls-1" d="M234.19,47.67a7.32,7.32,0,0,1-5.6-2.07,8.35,8.35,0,0,1-1.92-5.92V28.42h3.82V39.86a5,5,0,0,0,.95,3.3,4.06,4.06,0,0,0,5.48,0,5,5,0,0,0,1-3.29V28.42h3.83V39.68a8.42,8.42,0,0,1-1.92,5.91A7.28,7.28,0,0,1,234.19,47.67Zm-6.74-18.46V39.68a7.63,7.63,0,0,0,1.71,5.39h0a7.83,7.83,0,0,0,10.05,0,7.68,7.68,0,0,0,1.71-5.38V29.21h-2.27V39.86a5.64,5.64,0,0,1-1.14,3.79A4.12,4.12,0,0,1,234.19,45a4.22,4.22,0,0,1-3.34-1.33,5.72,5.72,0,0,1-1.14-3.81V29.21Z"/><path class="cls-1" d="M257.56,28.82h2.93V47h-2.34L249,34.32V47h-2.9V28.82h2.32l9.14,12.69Z"/><path class="cls-1" d="M260.88,47.44H258l-8.56-11.91V47.44h-3.68v-19h2.91l8.55,11.88V28.42h3.71Zm-2.53-.79h1.75V29.21H258V42.72l-9.74-13.51h-1.73V46.65h2.12V33.11Z"/><path class="cls-1" d="M269.4,47V31.56h-5.57V28.82h14.25v2.74h-5.56V47Z"/><path class="cls-1" d="M272.91,47.44H269V32h-5.57V28.42h15V32h-5.56Zm-3.12-.79h2.34V31.17h5.56v-2H264.22v2h5.57Z"/><path class="cls-1" d="M296,28.82,289,38.64V47h-3.12v-8.4L279,28.82h3.51L287.47,36l5-7.16Z"/><path class="cls-1" d="M289.43,47.44h-3.9V38.76l-7.26-10.34h4.47l4.73,6.87,4.75-6.87h4.49l-7.28,10.34Zm-3.12-.79h2.34V38.52l6.56-9.31h-2.58l-5.16,7.45-5.14-7.45h-2.55l6.53,9.31Z"/></svg>