<svg id="Layer_1" data-name="Layer 1" xmlns="http://www.w3.org/2000/svg" viewBox="0 0 196.64 65.93"><defs><style>.cls-1{fill:#fff;}</style></defs><title>thank-you</title><path class="cls-1" d="M37.14,6.19c-1.56.72-12.24,1.74-13.62,1.92.06,10.38,0,20.88.3,31.26a35,35,0,0,0,.48,5.57c.12.54.78,2.1.78,2.34,0,.42-.42.54-.78.54a6.45,6.45,0,0,1-1.86-.42c-1.5-.54-1.92-1.5-1.92-3.06,0-8.22-.24-16.38-.6-24.59-.18-3.72-.18-7.38-.6-11.1l-5.76.78a22.22,22.22,0,0,1-2.88.36c-1.32,0-3.3-1.32-3.3-2.76,0-.42,2.94-.48,3.3-.54,2.7-.3,5.52-.6,8.22-.84a8.77,8.77,0,0,1-.3-1.2C18.66,4,19,4,19.38,4c.84,0,3.24.6,3.78,1.2l10.2-.9c1.44-.12,3-.3,4.44-.3.36,0,.42,0,.54.3A2.12,2.12,0,0,1,37.14,6.19Z"/><path class="cls-1" d="M44.1,44c-6.3,0-7-10.43-7-15.12A72.1,72.1,0,0,1,38,18.13c-.9,2.1-5.88,23-5.88,24.71,0,.3.24,1.33-.18,1.33a4.27,4.27,0,0,1-2-.91c-2-1.44-1.44-2.76-1.5-5.16l-.12-4.49L28,15.37,27.78,6a15.52,15.52,0,0,0-.48-4.44c-.06-.12.24-.18.3-.18,1.14,0,3.84,1.38,3.84,2.76,0,4.14-.06,8.28-.06,12.42,0,6.42.18,12.84.24,19.25a195.54,195.54,0,0,1,5.46-20.09c.12-.36.3-.9.78-.9a13.55,13.55,0,0,1,3.36,1,1.23,1.23,0,0,1,.6,1.14c0,.6-.18,1.2-.24,1.8a111.55,111.55,0,0,0-1,14.15c0,1.62.24,9.37,2.7,9.37,1.62,0,3.12-7.75,3.3-8.64.06-.36.18-.78.6-.78s.6.54.6.89C47.76,33.72,46.86,43,44.1,44Z"/><path class="cls-1" d="M63,43.44c-4.26,0-6.18-8.45-6.6-11.75-.18,2-1.14,11.21-4,11.21a4.64,4.64,0,0,1-3.18-1.5c-3.66-3.48-4.14-9.18-4.14-13.91a20.81,20.81,0,0,1,.36-3.37,25.9,25.9,0,0,1,2.64-7.85c.84-1.56,2.88-5,4.86-5,1.5,0,6.12,3.36,6.12,4.5a.44.44,0,0,1-.48.48c-.42,0-1.68-2-3.18-2a2.23,2.23,0,0,0-1.2.42c-4.44,2.76-5.88,11.16-5.88,16,0,2.76.48,6.53,1.8,9,.18.36,1.08,1.8,1.5,1.8s.84-.65,1-.9c2.4-3.54,2.94-13.43,3.24-18,0-.3-.12-2.94.66-2.94,1.08,0,3.66.36,3.66,1.8,0,2.16-.3,4.38-.3,6.59,0,3.07.48,11.58,3.06,13.38,1.38-2,2-5.09,2.52-7.43.06-.42.18-1.92.78-1.92a.67.67,0,0,1,.6.72C66.84,34.62,65.58,43.44,63,43.44Z"/><path class="cls-1" d="M81.66,42.79c-5.58,0-6.18-10.26-6.18-14,0-1.92,0-3.84.18-5.76-1.44,3.48-4.32,14.51-4.32,17.87,0,.48.12.9-.54.9s-2.58-.53-2.58-1.32c0-2.46-.24-5-.42-7.5l-.54-8.93c0,1.38.18,13-1.74,13a.54.54,0,0,1-.54-.54,16.65,16.65,0,0,1,.42-2.41,78.74,78.74,0,0,0,.84-9.23c.12-2.82.12-5.64.18-8.46,0-.36,0-.72.42-.72a12.55,12.55,0,0,1,2,.48c1.86.42,1.56,1.44,1.62,3.12l.12,5.4.3,8.87,3.3-10.37A34.09,34.09,0,0,1,75.54,19a.78.78,0,0,1,.72-.48,8.77,8.77,0,0,1,1.2.3c.84.24,2.16.42,2.16,1.62,0,.6-.24,1.32-.3,2a50.18,50.18,0,0,0-.6,7.32c0,2.63.42,9.71,2.7,11.39h.06c1.26-1.31,2.1-5.64,2.4-7.49a19.18,19.18,0,0,1,.54-3.07,1,1,0,0,1,.36-.12c.66,0,.48.91.48,1.38C85.26,33.61,84.54,42.79,81.66,42.79Z"/><path class="cls-1" d="M100.68,44.58a3.37,3.37,0,0,1-2.28.6c-5.76,0-9.18-9.12-10.86-13.61l.54,11.87c0,.54.3,2.16.3,2.4a.49.49,0,0,1-.54.48A8.83,8.83,0,0,1,85,44.64a2.37,2.37,0,0,1-.42-1.56c0-11.63-.6-23.39-.9-35a29.65,29.65,0,0,0-.3-5.64,2.29,2.29,0,0,1-.18-.6c0-.18.3-.18.36-.18C84.9,1.63,87.3,3,87.3,4.57c0,6.84.06,13.74.24,20.58,1.14-3.78,3.36-8,6.48-10.56a2.53,2.53,0,0,1,1.2-.6,6.81,6.81,0,0,1,3.42,2,2.73,2.73,0,0,1,.3,1.2c0,6.06-2.76,11.64-8.88,13.44l2.22,4c.9,1.55,4.56,8.51,6.84,8.51,1.86,0,3.48-7.55,3.78-9,.06-.24.24-.84.54-.84.66,0,.72.72.72,1.19C104.16,37.08,103,42.84,100.68,44.58ZM95.22,15.73c-3.06,3.3-7,8.94-7.62,13.5,2.46-.24,5.34-4.56,6.48-6.61a11.59,11.59,0,0,0,1.32-5.27A7.45,7.45,0,0,0,95.22,15.73Z"/><path class="cls-1" d="M146.82,50.46a1.08,1.08,0,0,1-.6.12c-.6,0-1.86-1.56-4.62-1.56a11,11,0,0,0-2,.18c.06,1,.12,1.92.12,2.94,0,4.08-.72,9.66-4.92,11.64a4.66,4.66,0,0,1-2,.54c-2.82,0-3.84-2.82-3.84-5.16a11.41,11.41,0,0,1,7.5-10.8c-.72-4.44-1.14-8.88-1.5-13.37-.12,2.15-1,14.57-4.68,14.57a7.66,7.66,0,0,1-4.86-1.74c-4.92-3.78-5.58-11.64-5.58-17.33a75.62,75.62,0,0,1,1.26-12.78c.3-1.8,1.2-5,1.2-6.54v-.12h-.06a8.08,8.08,0,0,0-.72.72c-2.7,2.82-4.14,6.42-5.34,10.08-.06.12-.42,1.2-.42,1.26v.24c.06.18.24.24.36.42l.06.12c-.06.36-.48.42-.72.42-1,0-2.58-.78-2.58-1.8A13.12,13.12,0,0,1,114.06,19c1.14-2.76,4.5-9.72,7.92-9.72a5.12,5.12,0,0,1,3.36,1.62,3.67,3.67,0,0,1,.54,2.1,12,12,0,0,1-.3,2.52,82.29,82.29,0,0,0-2.1,17.1c0,4.56.6,11.63,4.62,14.69a5,5,0,0,0,1.56.84c4,0,5.1-27.35,5.28-31.73l.24-5.22c0-.36-.24-3.42.84-3.42a5,5,0,0,1,1.26.36c1,.3,2.28.3,2.28,1.68a16.4,16.4,0,0,1-.3,2.4q-.36,2.61-.54,5.22c-.36,4.08-.54,8.15-.54,12.24,0,6,.6,12,1.2,18a8.57,8.57,0,0,1,1.74-.18c1.26,0,5.82.9,5.82,2.52A.85.85,0,0,1,146.82,50.46Zm-10.08-.6c-3.84.84-6.36,5.7-6.36,9.36,0,1.26.24,3.18,1.5,3.84,4.38-.9,4.92-7.62,4.92-11.16C136.8,51.24,136.8,50.52,136.74,49.86Z"/><path class="cls-1" d="M153,42.25a5.52,5.52,0,0,1-4.08,2.46c-6.84,0-8.64-9.25-8.64-14.52,0-1.92.66-10.68,2.16-11.64a1.78,1.78,0,0,1,1.08-.24,2.55,2.55,0,0,1,.66.12c1-2,2-4.14,4.62-4.14a4.32,4.32,0,0,1,2.28.6c4.14,2.52,5.27,9,5.27,13.49C156.35,32.71,155.64,38.76,153,42.25ZM150.06,16c-.18-.12-.48-.48-.72-.48a1.28,1.28,0,0,0-.9.42c-2.1,1.86-2.82,6.48-2.82,9.18a12.27,12.27,0,0,0,1.32,6.23c.3.42,1.62,1.62,1.62,1.92s-.66.49-1,.49c-2.16,0-3.54-2.46-4.14-4.21v.72c-.06,4.08.78,10.5,4.62,12.72a2,2,0,0,0,1,.36,1.44,1.44,0,0,0,.84-.36c2.88-2.22,3.48-10.37,3.48-13.79C153.42,25.57,153.12,18.67,150.06,16Z"/><path class="cls-1" d="M178.43,42.36c-.42.54-1,1.26-1.74,1.26-4.2,0-6.18-6.29-6.72-9.66-.3,2.46-1.38,8.22-3.84,9.36-.18,0-.48.06-.66.06-6.59,0-7.62-10.26-7.62-15.11a88.06,88.06,0,0,1,.48-8.88c.12-1.14.42-2.46.42-3.6,0-.3-.12-.48-.12-.72s.25-.3.36-.3a7.63,7.63,0,0,1,3.06,1,1.9,1.9,0,0,1,.24,1,11.82,11.82,0,0,1-.24,2,78.37,78.37,0,0,0-.9,10.56c0,3.24.18,9.47,2.64,11.88a2.26,2.26,0,0,0,1.44.71c3.12-3.42,4.38-17.09,4.74-21.89.12-1.5.18-3.06.24-4.62,0-.24-.06-2,.42-2a6.06,6.06,0,0,1,1,.18c.78.18,2.34.24,2.34,1.32,0,.18-.06.42-.06.6a114.35,114.35,0,0,0-.78,12.84c0,3.42.48,10.67,2.82,13.38,2.7-.73,3.84-9.72,4.14-12.18.06-.36.12-.72.54-.72s.48.48.48.77C181.13,33.19,180.65,39.42,178.43,42.36Z"/><path class="cls-1" d="M184.13,45.24c-1.62,0-2.1-2.76-2.1-4s.48-4,2.1-4,2,2.75,2,4S185.75,45.24,184.13,45.24Zm2.22-38c-.3,2.82-.48,5.64-.6,8.46-.18,4.62-.24,9.24-.24,13.85,0,.84-.18,4.75.3,5,.06,0,.06.18.06.23v.12a.33.33,0,0,1-.36.25c-1.08,0-2.7-.84-2.7-2.05,0-8.81-.18-17.63-.36-26.45,0,0-.54-2.52.24-2.28a9,9,0,0,1,3.42,1.5,1.29,1.29,0,0,1,.24,1Z"/></svg>