<svg id="Layer_1" data-name="Layer 1" xmlns="http://www.w3.org/2000/svg" viewBox="0 0 425.64 65.93"><defs><style>.cls-1{fill:#f58220;}</style></defs><title>welcome</title><path class="cls-1" d="M52.39,35.7C51.9,40.54,49.33,59.08,45.13,62a2.31,2.31,0,0,1-1.61.4c-8.06,0-10.8-13.3-11.6-19.42-.33,4.43-1.78,23-8.47,23-2.33,0-4.35-1.53-5.88-3.23-5.16-5.88-6.69-16.76-6.69-24.34,0-3.86,0-7.73.16-11.6s.65-7.74.81-11.69h-.08C8.46,18.78,6,25.63,4.67,30.38a19.69,19.69,0,0,0-.56,2c0,.48.4.48.4.64,0,.41-.4.33-.72.33C3,33.37,0,32.4,0,31.19a10.25,10.25,0,0,1,.89-3C2.26,24,7.25,11.77,12.49,11.77a5.16,5.16,0,0,1,1.53.32c2.91,1.13,3.07,3.63,3.07,6.45,0,1.93-.25,4-.33,6-.16,4.19-.48,8.3-.48,12.49,0,6.77,1,22,7.09,26.6,5.24-3.87,6.77-36.75,6.85-43.52,0-1.13,1.13-1,2-1,1.93,0,3.46.73,3.46,3,0,7.82.73,30.55,6.21,36.76A3.45,3.45,0,0,0,43.2,60c4.11-2,5.64-25,5.64-29.74,0-5.48-.56-16.84-5-20.63-.56-.48-1.2-.56-1.77-1v-.4a5.51,5.51,0,0,1,2.58-.48c7.9,0,8.22,11.52,8.22,17.16C52.87,28.53,52.71,32.08,52.39,35.7Z"/><path class="cls-1" d="M75.84,48.28c-.72,4.51-2.5,12.49-8.46,12.49A9.83,9.83,0,0,1,64.32,60C56.42,56.9,54,46.34,54,38.77c0-5.81,1.94-14,5.4-18.78.4-.57,1-1.37,1.77-1.37a14.45,14.45,0,0,1,4.36,1.45c.48.24,1,.32,1.45.56,1.69.81,1.69,4.27,1.69,5.89,0,4.67-1.93,17.16-8.22,17.16a2.9,2.9,0,0,1-1.37-.56c.4,4.59,1.45,10.48,4.83,13.86.65.65,2.26,1.86,3.23,1.86,4,0,6.77-10.24,7.33-13.3.08-.49.24-1.29.89-1.29s.81.8.81,1.37A15.23,15.23,0,0,1,75.84,48.28ZM64.56,21.52A12.51,12.51,0,0,0,62.79,24c-2.74,4.83-3.87,11.2-3.87,16.68A7,7,0,0,0,59,42a4,4,0,0,0,3.14-2.42A51.52,51.52,0,0,0,65.36,24.1C65.36,23.61,65.28,21.52,64.56,21.52Z"/><path class="cls-1" d="M83.82,60.53C73.75,60.53,74,42.72,74,36c0-4.68.24-9.19.24-13.87,0-3.46,0-7-.08-10.47a8.8,8.8,0,0,0-.48-3.23s-.41-.4.16-.8c1.45,0,4.75,1.45,5.32,2.9a5.09,5.09,0,0,1,.24,1.53c0,9.75-1,19.58-1,29.34,0,4.35.4,13.78,4,16.68a2.13,2.13,0,0,0,1.21.56c2.58-1.2,4.67-13.21,5.16-16.12.08-.56.16-1.53,1-1.53.57,0,.81.57.81,1C90.51,45.78,88.82,60.53,83.82,60.53Z"/><path class="cls-1" d="M99.46,60.69c-10.32,0-13.46-13-13.46-21.2,0-6.12,1.93-14.67,6.12-19.26.57-.56,1.21-1.29,2.1-1.29,1.29,0,3.38.48,4.27,1.45a10.31,10.31,0,0,1,2.1,1.05c2.49,1.61,2.66,7.74,2.66,10.4,0,1.69,0,8.46-2.58,8.46s-2.9-3.71-2.9-5.56.4-4.27,1.77-5.48l.08-.49c.08-1.53,0-6-1.53-6.77H98c-5.73,2.34-7.26,14.51-7.26,20,0,4.76,1,11.2,4.44,14.75.8.81,2.41,2.1,3.54,2.1,4.6,0,7.18-8.31,7.9-11.85.08-.41.08-1.61.73-1.61a1,1,0,0,1,1,.88C108.32,51.1,105.5,60.69,99.46,60.69Z"/><path class="cls-1" d="M123,57.22c-1.29,1.7-3.22,3.31-5.48,3.31-9.19,0-11.6-12.41-11.6-19.51,0-2.58.88-14.34,2.9-15.63a2.39,2.39,0,0,1,1.45-.32,3.4,3.4,0,0,1,.88.16c1.37-2.74,2.74-5.56,6.21-5.56a5.81,5.81,0,0,1,3.06.8c5.56,3.39,7.1,12.09,7.1,18.14C127.51,44.41,126.54,52.55,123,57.22ZM119,22c-.24-.16-.64-.64-1-.64a1.71,1.71,0,0,0-1.21.56c-2.82,2.5-3.79,8.71-3.79,12.33,0,2.74.32,6,1.77,8.39.4.56,2.18,2.17,2.18,2.57,0,.57-.89.65-1.29.65-2.9,0-4.76-3.31-5.56-5.64v1c-.08,5.49,1,14.11,6.2,17.09a2.86,2.86,0,0,0,1.37.48,2,2,0,0,0,1.13-.48c3.87-3,4.68-13.94,4.68-18.54C123.56,34.82,123.15,25.55,119,22Z"/><path class="cls-1" d="M160.79,58.11a3.55,3.55,0,0,1-1.29.16c-7.57,0-8.3-13-8.3-18.29,0-2.18.08-4.44.24-6.61-1.45,5.56-4.19,16.76-4.19,22.4a8.75,8.75,0,0,0,.49,2.18.64.64,0,0,1-.65.64,4.87,4.87,0,0,1-4-2.58c-.56-1.69-1.29-21-1.37-23.61l-3.06,13.78c-.57,2.5-1.69,6-1.69,8.71,0,1.21.4,2.66.4,3.7,0,.41-.24.65-.73.65a3.45,3.45,0,0,1-1.29-.32c-1.69-.65-3.3-1.45-3.38-3.47l-.16-5.08-.41-12.57c-.08,1.61-.56,11.36-1.45,12.17a.48.48,0,0,1-.32.08c-.8,0-1.37-.56-1.21-1.29.24-1,.49-2.18.65-3.14.24-1.45.4-3,.56-4.52a156.12,156.12,0,0,0,.81-16.36c0-1.69,0-3.22-.08-4.91a10.57,10.57,0,0,0-.41-1.7l.25-.16c.4,0,1.93.49,2.41.57,2.58.64,2.74,1.53,2.82,4l.17,6,.24,18.94,3.87-17.08,1.21-5.73c.16-.8.4-2.17,1.53-2.17a3.61,3.61,0,0,1,.88.24c1.45.4,3.63.64,3.63,2.66,0,1.05-.16,2.09-.24,3.14-.16,3.06-.24,6.13-.24,9.19v4.51c0,1.62,0,3.07.08,4.68l4.67-20.72c.08-.48.32-1.12,1-1.12a9.48,9.48,0,0,1,1.61.4c1.85.4,2.9.24,2.9,2.34,0,1.61-.32,3.14-.48,4.75a69.59,69.59,0,0,0-.57,8.14c0,3.23.41,13.94,3.87,15.23,1.78-.8,3.47-8.78,3.87-10.8.08-.4.32-1,.81-1,.32,0,.8.16.8.56C165,47.39,163.29,57,160.79,58.11Z"/><path class="cls-1" d="M183.36,48.28c-.72,4.51-2.5,12.49-8.46,12.49a9.83,9.83,0,0,1-3.06-.81c-7.9-3.06-10.32-13.62-10.32-21.19,0-5.81,1.93-14,5.4-18.78.4-.57,1-1.37,1.77-1.37A14.3,14.3,0,0,1,173,20.07c.49.24,1,.32,1.46.56,1.69.81,1.69,4.27,1.69,5.89,0,4.67-1.94,17.16-8.22,17.16a2.9,2.9,0,0,1-1.37-.56c.4,4.59,1.45,10.48,4.83,13.86.65.65,2.26,1.86,3.23,1.86,4,0,6.77-10.24,7.33-13.3.08-.49.24-1.29.89-1.29s.8.8.8,1.37A15.2,15.2,0,0,1,183.36,48.28ZM172.08,21.52A13,13,0,0,0,170.3,24c-2.74,4.83-3.86,11.2-3.86,16.68a7,7,0,0,0,.08,1.29,4,4,0,0,0,3.14-2.42,51.52,51.52,0,0,0,3.22-15.47C172.88,23.61,172.8,21.52,172.08,21.52Z"/><path class="cls-1" d="M209.72,61.33c-11.29,0-11.53-21.43-11.53-29.33,0-2.34,0-4.76.08-7.1a10,10,0,0,1-1.53.17c-.81,0-3.87-.73-3.87-1.7,0-.24,1.21-.48,1.45-.48l4.11-.65c.32-3.54.49-7.09.73-10.63.08-1.21.16-2.5.24-3.71,0-.08.32-.08.32-.08a6.38,6.38,0,0,1,1.13.16c3.47.72,3.79,1.37,3.87,2.26-.08.56-.65,5.4-.73,5.88-.24,1.77-.32,3.55-.48,5.4a85.23,85.23,0,0,1,9-1.05c.16,0,.56.08.56.32,0,.73-1.29,1.37-1.85,1.54a.61.61,0,0,1,.16.32,1.21,1.21,0,0,1-.57,1c-.72.49-6,.81-7.41,1-.16,2.42-.32,4.92-.32,7.34,0,6.85-.33,22.16,4.91,26.59a3.21,3.21,0,0,0,1.37.73c2.42-1.86,3.71-5.16,4.52-8a53.19,53.19,0,0,0,1.61-7.9c.08-.4.08-1.69.72-1.69s.89.32.89,1C217.05,46.75,215.2,61.33,209.72,61.33Z"/><path class="cls-1" d="M230.27,57.22c-1.29,1.7-3.23,3.31-5.48,3.31-9.19,0-11.61-12.41-11.61-19.51,0-2.58.89-14.34,2.9-15.63a2.42,2.42,0,0,1,1.45-.32,3.4,3.4,0,0,1,.89.16c1.37-2.74,2.74-5.56,6.21-5.56a5.86,5.86,0,0,1,3.06.8c5.56,3.39,7.09,12.09,7.09,18.14C234.78,44.41,233.81,52.55,230.27,57.22Zm-4-35.22c-.24-.16-.65-.64-1-.64a1.74,1.74,0,0,0-1.21.56c-2.82,2.5-3.78,8.71-3.78,12.33,0,2.74.32,6,1.77,8.39.4.56,2.17,2.17,2.17,2.57,0,.57-.88.65-1.28.65-2.91,0-4.76-3.31-5.57-5.64v1c-.08,5.49,1.05,14.11,6.21,17.09a2.82,2.82,0,0,0,1.37.48,2,2,0,0,0,1.13-.48c3.87-3,4.67-13.94,4.67-18.54C230.83,34.82,230.43,25.55,226.32,22Z"/><path class="cls-1" d="M277.58,37.32c7.82.64,12.89,6.77,12.89,14.42,0,7.1-4.91,13.54-12.41,13.54a13.12,13.12,0,0,1-10-5.07,12.92,12.92,0,0,0,.89,3.38c.16.24.56.73.56,1,0,.48-.81.64-1.21.64A4.42,4.42,0,0,1,263.72,61c0-3.46-.16-6.85-.33-10.31-.24-5.89-.4-11.77-.8-17.66-.32-4.11-.65-8.3-1-12.41l-.16-2a9.69,9.69,0,0,1-.32-1.45c-1.86,1.77-9.43,9.67-9.35,11.93v.08l.08.16.08.08a3.34,3.34,0,0,1,.32.8c0,.41-.4.57-.72.57-1.37,0-6.05-3.06-6.05-4.35a1.11,1.11,0,0,1,.4-.81c4.44-5.48,9-10.72,14.67-15.07C266.86,5.56,276.69,0,285.07,0c5.4,0,10.16,3.38,10.16,9C295.23,18.05,285.07,32.48,277.58,37.32ZM288,4.67c-9,0-19.75,6.21-26.28,12,.49-.24,4.27.57,4.76.89a1.68,1.68,0,0,1,.72,1.53c0,8.54-.08,16.93.08,25.47,0,2-.08,9,.32,10.56a6.8,6.8,0,0,0,.49,1c1.53,3,4.59,5.72,8.14,5.72,6.93,0,10.72-6,10.72-12.49,0-6-3.39-9.68-9.43-9.68-2,0-4.11.81-5.16.81-1.21,0-3.79-1.77-4-3l.16-.33c.81-.72,3.39-1.93,4.43-2.65a46.55,46.55,0,0,0,4-3c5.81-4.67,15.48-16.12,15.48-23.85C292.33,4.92,290.31,4.67,288,4.67Z"/><path class="cls-1" d="M308,57.22c-1.29,1.7-3.23,3.31-5.49,3.31-9.18,0-11.6-12.41-11.6-19.51,0-2.58.89-14.34,2.9-15.63a2.41,2.41,0,0,1,1.45-.32,3.48,3.48,0,0,1,.89.16c1.37-2.74,2.74-5.56,6.2-5.56a5.87,5.87,0,0,1,3.07.8c5.56,3.39,7.09,12.09,7.09,18.14C312.48,44.41,311.51,52.55,308,57.22ZM304,22c-.25-.16-.65-.64-1-.64a1.72,1.72,0,0,0-1.21.56c-2.82,2.5-3.79,8.71-3.79,12.33,0,2.74.32,6,1.78,8.39.4.56,2.17,2.17,2.17,2.57,0,.57-.89.65-1.29.65-2.9,0-4.75-3.31-5.56-5.64v1c-.08,5.49,1.05,14.11,6.21,17.09a2.79,2.79,0,0,0,1.37.48,2,2,0,0,0,1.12-.48c3.87-3,4.68-13.94,4.68-18.54C308.53,34.82,308.13,25.55,304,22Z"/><path class="cls-1" d="M342.14,57.38c-.57.73-1.29,1.7-2.34,1.7-5.64,0-8.3-8.47-9-13-.4,3.31-1.85,11-5.15,12.57-.25,0-.65.08-.89.08-8.87,0-10.24-13.78-10.24-20.31a119.17,119.17,0,0,1,.65-11.92c.16-1.54.56-3.31.56-4.84,0-.4-.16-.64-.16-1s.32-.4.48-.4a10.36,10.36,0,0,1,4.12,1.29,2.57,2.57,0,0,1,.32,1.29,16,16,0,0,1-.32,2.74,104.36,104.36,0,0,0-1.21,14.18c0,4.36.24,12.74,3.54,16a3,3,0,0,0,1.94,1c4.19-4.59,5.88-23,6.36-29.42.17-2,.25-4.11.33-6.2,0-.33-.08-2.66.56-2.66a8.2,8.2,0,0,1,1.37.24c1.05.24,3.14.32,3.14,1.77,0,.24-.08.57-.08.81a154.64,154.64,0,0,0-1,17.25c0,4.59.64,14.34,3.78,18,3.63-1,5.16-13.06,5.57-16.36.08-.49.16-1,.72-1s.65.64.65,1C345.77,45.05,345.12,53.44,342.14,57.38Z"/><path class="cls-1" d="M354.31,60.53c-10.08,0-9.84-17.81-9.84-24.5,0-4.68.25-9.19.25-13.87,0-3.46,0-7-.08-10.47a8.6,8.6,0,0,0-.49-3.23s-.4-.4.16-.8c1.45,0,4.76,1.45,5.32,2.9a5.09,5.09,0,0,1,.24,1.53c0,9.75-1,19.58-1,29.34,0,4.35.4,13.78,3.95,16.68a2.1,2.1,0,0,0,1.21.56c2.58-1.2,4.67-13.21,5.15-16.12.08-.56.17-1.53,1-1.53.57,0,.81.57.81,1C361,45.78,359.3,60.53,354.31,60.53Z"/><path class="cls-1" d="M381.15,58.92c-3.63,0-6.77-7.18-7.66-10.08-.48,2.58-2.58,12.09-6,12.09a9.81,9.81,0,0,1-3.07-.4c-6.77-2.34-7.9-15.15-7.9-21.2,0-5.24,1.7-14.26,6-17.65A2.41,2.41,0,0,1,364,21a4,4,0,0,1,1.69.4c.65.24,1.37.32,2,.56A10.21,10.21,0,0,1,372,25.23V23.7c.08-5.57-.16-11.13-.24-16.69,0-1.21-.49-2.58-.49-3.71,0-.24.17-.32.41-.32,1.21,0,4.11,1.21,4.75,2.34a2.23,2.23,0,0,1,.24,1c0,10.8-.08,21.52.17,32.32.08,5.48.64,11.84,3.46,16.76.24.4.56.81,1.05.73,1.85-2.66,2.66-6.85,3.3-10.08.08-.56.25-2.66,1.05-2.66a1,1,0,0,1,.89,1C386.63,47.31,384.94,58.92,381.15,58.92Zm-14-35c-.8,0-1.61,1.21-2,1.77-3.06,4.27-3.95,11.85-3.95,16.93,0,2.9,1.37,16.76,5.4,16.76.72,0,1.61-1.21,1.93-1.77,2.82-4.6,3.63-14.91,3.63-20.31C372.12,34.33,371.39,23.94,367.12,23.94Z"/><path class="cls-1" d="M404.44,48.28c-.72,4.51-2.5,12.49-8.46,12.49a10,10,0,0,1-3.07-.81C385,56.9,382.6,46.34,382.6,38.77c0-5.81,1.93-14,5.4-18.78.4-.57,1-1.37,1.77-1.37a14.3,14.3,0,0,1,4.35,1.45c.49.24,1,.32,1.45.56,1.7.81,1.7,4.27,1.7,5.89,0,4.67-1.94,17.16-8.22,17.16a2.9,2.9,0,0,1-1.37-.56c.4,4.59,1.45,10.48,4.83,13.86.65.65,2.26,1.86,3.23,1.86,4,0,6.77-10.24,7.33-13.3.08-.49.24-1.29.89-1.29s.8.8.8,1.37A15.2,15.2,0,0,1,404.44,48.28ZM393.16,21.52a12.14,12.14,0,0,0-1.78,2.5c-2.74,4.83-3.86,11.2-3.86,16.68A7,7,0,0,0,387.6,42a4,4,0,0,0,3.14-2.42A51.52,51.52,0,0,0,394,24.1C394,23.61,393.88,21.52,393.16,21.52Z"/><path class="cls-1" d="M420.24,59.88c-7.5,0-9.43-14.83-9.43-20.55a119.49,119.49,0,0,1,.72-12c-.88,1.29-3.62,4.68-5.24,4.68a.87.87,0,0,1-.64-.25c.32,7-.64,17.66-3.55,23.94-.32.65-.32,1.21-1.12,1.21-.57,0-.73-.48-.73-1a4.68,4.68,0,0,1,.16-1c2.58-6.77,3.06-15.88,3.06-19,0-1.94-.08-3.95-.24-5.89-3.06-.72-4.19-9.59-4.19-12.25,0-1.69.08-5.4,2.42-5.4,4.11,0,3.87,9.27,3.87,12.09,0,1.21-.08,2.42-.16,3.63,2.09-.24,4.43-8,7.09-8a2.35,2.35,0,0,1,1.05.32c1.69.57,3.7.73,3.62,3l-.08.33c-.08,1.37-.4,2.82-.56,4.19a103.12,103.12,0,0,0-1.05,13.21c0,3.95,1.13,13.46,4.19,16,2.42-2.09,4-10,4.6-12.89.08-.57.24-.89.88-.89.41,0,.73.57.73,1C425.64,47,424,59.88,420.24,59.88Z"/></svg>