<svg id="Layer_1" data-name="Layer 1" xmlns="http://www.w3.org/2000/svg" viewBox="0 0 48 48"><defs><style>.cls-1{fill:#fdc33b;}.cls-2{fill:#fff;}</style></defs><title>c-icon</title><rect class="cls-1" width="48" height="48"/><path class="cls-2" d="M13.68,11.27A14.82,14.82,0,0,1,24.23,7.39q8.57,0,12.53,5.2a10.74,10.74,0,0,1,2.35,5.86H31.94A8.62,8.62,0,0,0,30.18,15a7.38,7.38,0,0,0-5.68-2,7.2,7.2,0,0,0-6,2.89q-2.21,2.89-2.21,8.17T18.58,32a7.58,7.58,0,0,0,5.93,2.63,7,7,0,0,0,5.63-2.26,9.63,9.63,0,0,0,1.78-3.64H39a13.84,13.84,0,0,1-4.71,8.35,14.46,14.46,0,0,1-9.71,3.22q-7.32,0-11.51-4.34T8.92,24Q8.92,15.72,13.68,11.27Z"/><path class="cls-2" d="M24.62,40.79c-5,0-9-1.51-11.88-4.5S8.41,29.14,8.41,24c0-5.61,1.66-10,4.93-13.07h0a15.39,15.39,0,0,1,10.89-4c5.85,0,10.2,1.82,12.93,5.4a11.26,11.26,0,0,1,2.46,6.15l0,.55-8.42.21-.08-.57a6.7,6.7,0,0,0-1.71-2.88c-1.17-1.25-2.59-1.66-5-1.66a5.94,5.94,0,0,0-5.33,2.46C17.76,18.36,17,20.61,17,24s.84,5.55,2.3,7.19a6.06,6.06,0,0,0,5.11,2.34c2.32,0,3.85-.39,5-1.79a8,8,0,0,0,1.63-3.21l.15-1h8.29v1.3a14.37,14.37,0,0,1-4.88,8.66A15,15,0,0,1,24.62,40.79ZM24.23,7.9A14.37,14.37,0,0,0,14,11.65h0c-3,2.85-4.6,7-4.6,12.3,0,4.91,1.36,8.82,4,11.61s6.44,4.19,11.15,4.19A14.06,14.06,0,0,0,34,36.66a13.24,13.24,0,0,0,4.41-7.44H32.29a9.59,9.59,0,0,1-1.77,3.47,7.51,7.51,0,0,1-6,2.43,8.11,8.11,0,0,1-6.31-2.8c-1.63-1.85-2.46-4.63-2.46-8.27s.78-6.48,2.32-8.49a7.71,7.71,0,0,1,6.44-3.09,7.93,7.93,0,0,1,6.05,2.21,8.71,8.71,0,0,1,1.76,3.25h6.24a10.69,10.69,0,0,0-2.2-5C33.83,9.59,29.75,7.9,24.23,7.9Z"/></svg>