<svg id="Layer_1" data-name="Layer 1" xmlns="http://www.w3.org/2000/svg" viewBox="0 0 48 48"><defs><style>.cls-1{fill:#f3822f;}.cls-2{fill:#fff;}</style></defs><title>pp-icon</title><rect class="cls-1" x="0.08" y="-0.05" width="47.96" height="47.93"/><path class="cls-2" d="M25.92,22.75V10.59c0-.52,0-.52.51-.52h9.73a6.76,6.76,0,0,1,7,5.59,14.52,14.52,0,0,1,.16,4.46,9.12,9.12,0,0,1-1.1,3.71,5.75,5.75,0,0,1-4.62,3C35.72,27,33.86,27,32,27c-.55,0-.55,0-.55.56v7.27c0,.54,0,.54-.52.54-1.52,0-3.05,0-4.57,0-.38,0-.46-.13-.46-.47Q25.93,28.84,25.92,22.75Zm5.54-4.12c0,.93,0,1.85,0,2.77,0,.32.11.41.41.4,1.19,0,2.39,0,3.58-.08A2.2,2.2,0,0,0,37.63,20a7,7,0,0,0,.15-2,2.57,2.57,0,0,0-2.72-2.53h-3.2c-.31,0-.41.09-.4.4C31.47,16.78,31.46,17.71,31.46,18.63Z"/><path class="cls-2" d="M5.75,22.71V10.63c0-.56,0-.56.54-.56h9.89a6.72,6.72,0,0,1,6.68,5.24A14,14,0,0,1,23.11,20,9.24,9.24,0,0,1,22,23.83a5.75,5.75,0,0,1-4.62,3c-1.83.18-3.69.13-5.53.18-.55,0-.56,0-.56.55v7.31c0,.51,0,.51-.52.51-1.52,0-3,0-4.57,0-.36,0-.46-.11-.46-.47Q5.76,28.84,5.75,22.71Zm5.54-4.08c0,.92,0,1.85,0,2.77,0,.31.1.41.4.4,1.2,0,2.39,0,3.59-.08A2.21,2.21,0,0,0,17.46,20a7,7,0,0,0,.15-2,2.57,2.57,0,0,0-2.71-2.54H11.7c-.31,0-.42.08-.41.4C11.31,16.78,11.29,17.7,11.29,18.63Z"/></svg>