<svg id="Layer_1" data-name="Layer 1" xmlns="http://www.w3.org/2000/svg" viewBox="0 0 48 48"><defs><style>.cls-1{fill:#26428c;}.cls-2{fill:#fff;}</style></defs><title>s-icon</title><rect class="cls-1" width="48" height="48"/><path class="cls-2" d="M18.36,29.34c.06.41.1.84.19,1.26A4.16,4.16,0,0,0,21.71,34a9.18,9.18,0,0,0,6-.26,2.8,2.8,0,0,0,1.9-2.36A2.23,2.23,0,0,0,29,29.47a6.25,6.25,0,0,0-2.92-1.56c-2.07-.6-4.17-1.12-6.25-1.71a17.77,17.77,0,0,1-5.58-2.5,7.91,7.91,0,0,1-3.38-7.39c.23-3.5,2.13-5.86,5.13-7.44a16.45,16.45,0,0,1,6.29-1.73,18.25,18.25,0,0,1,7.27.73A11,11,0,0,1,35.43,12a9.46,9.46,0,0,1,1.66,5.6h-8.5a7.91,7.91,0,0,0-.06-.86,2.84,2.84,0,0,0-1.41-2.09,6.91,6.91,0,0,0-6.49-.31,2.19,2.19,0,0,0-1.25,2.41,1.94,1.94,0,0,0,1.16,1.47,16.92,16.92,0,0,0,2.63,1c2.09.59,4.22,1.07,6.31,1.66a16,16,0,0,1,5.4,2.51,8.06,8.06,0,0,1,3.24,7.5A10.21,10.21,0,0,1,37,35.21a10,10,0,0,1-5.57,4.55,20.9,20.9,0,0,1-7.52,1.18,19,19,0,0,1-6.93-1.19,10.13,10.13,0,0,1-6.71-7.39,24.86,24.86,0,0,1-.36-2.73c0-.21,0-.35.27-.35l8.14,0Z"/></svg>